<svg width="36" height="28" viewBox="0 0 36 28" fill="none" xmlns="http://www.w3.org/2000/svg">
<path d="M18 0.950012C21.2287 0.950012 23.85 3.57126 23.85 6.80001C23.85 10.0288 21.2287 12.65 18 12.65C14.7712 12.65 12.15 10.0288 12.15 6.80001C12.15 3.57126 14.7712 0.950012 18 0.950012ZM5.4 5.00001C7.63875 5.00001 9.45 6.81126 9.45 9.05001C9.45 11.2888 7.63875 13.1 5.4 13.1C3.16125 13.1 1.35 11.2888 1.35 9.05001C1.35 6.81126 3.16125 5.00001 5.4 5.00001ZM0 23.45C0 19.4731 3.22313 16.25 7.2 16.25C7.92 16.25 8.6175 16.3569 9.27562 16.5538C7.425 18.6238 6.3 21.3575 6.3 24.35V25.25C6.3 25.8913 6.435 26.4988 6.67687 27.05H1.8C0.804375 27.05 0 26.2456 0 25.25V23.45ZM29.3231 27.05C29.565 26.4988 29.7 25.8913 29.7 25.25V24.35C29.7 21.3575 28.575 18.6238 26.7244 16.5538C27.3825 16.3569 28.08 16.25 28.8 16.25C32.7769 16.25 36 19.4731 36 23.45V25.25C36 26.2456 35.1956 27.05 34.2 27.05H29.3231ZM26.55 9.05001C26.55 6.81126 28.3612 5.00001 30.6 5.00001C32.8387 5.00001 34.65 6.81126 34.65 9.05001C34.65 11.2888 32.8387 13.1 30.6 13.1C28.3612 13.1 26.55 11.2888 26.55 9.05001ZM9 24.35C9 19.3775 13.0275 15.35 18 15.35C22.9725 15.35 27 19.3775 27 24.35V25.25C27 26.2456 26.1956 27.05 25.2 27.05H10.8C9.80437 27.05 9 26.2456 9 25.25V24.35Z" fill="#8BF98B"/>
</svg>
