<svg width="36" height="36" viewBox="0 0 36 36" fill="none" xmlns="http://www.w3.org/2000/svg">
<path d="M13.6749 7.29388V10.6289L13.7085 10.6626C14.1456 5.12205 18.7783 0.764941 24.4332 0.764941C25.7847 0.764941 27.0824 1.01373 28.2725 1.47095C28.9449 1.72646 29.0659 2.5804 28.5617 3.09142L22.5975 9.05554C22.3958 9.25726 22.2815 9.53294 22.2815 9.81535V12.5991C22.2815 13.1908 22.7656 13.6749 23.3573 13.6749H26.141C26.4234 13.6749 26.6991 13.5606 26.9008 13.3589L32.865 7.39473C33.376 6.88372 34.2299 7.01147 34.4854 7.68386C34.9427 8.874 35.1914 10.1717 35.1914 11.5232C35.1914 15.5979 32.9255 19.1482 29.577 20.9703L35.057 26.4503C36.3143 27.7077 36.3143 29.7518 35.057 31.0159L31.0159 35.057C29.7585 36.3143 27.7144 36.3143 26.4503 35.057L17.9782 26.5848C16.1358 24.7425 15.719 22.0193 16.7343 19.7735L10.6357 13.6749H7.3006C6.58114 13.6749 5.90875 13.3185 5.51203 12.7201L0.17996 4.72533C-0.102445 4.30173 -0.0486538 3.73019 0.314438 3.3671L3.3671 0.314438C3.73019 -0.0486538 4.295 -0.102445 4.72533 0.17996L12.7201 5.50531C13.3185 5.90202 13.6749 6.57441 13.6749 7.29388ZM13.1033 20.7081C12.6797 23.196 13.2647 25.825 14.8785 27.9296L8.49073 34.3106C6.60131 36.2 3.5352 36.2 1.64578 34.3106C-0.243648 32.4212 -0.243648 29.3551 1.64578 27.4657L10.75 18.3615L13.1033 20.7148V20.7081Z" fill="#CCCCCC"/>
</svg>
