<svg width="36" height="22" viewBox="0 0 36 22" fill="none" xmlns="http://www.w3.org/2000/svg">
<path d="M8.1 11.9C8.1 9.23939 6.17625 7.02876 3.645 6.58439C4.05 2.99001 7.09875 0.200012 10.8 0.200012H25.2C28.9012 0.200012 31.95 2.99001 32.355 6.58439C29.8237 7.03439 27.9 9.23939 27.9 11.9V13.7H8.1V11.9ZM0 18.2V11.9C0 10.4094 1.20937 9.20001 2.7 9.20001C4.19062 9.20001 5.4 10.4094 5.4 11.9V16.4H30.6V11.9C30.6 10.4094 31.8094 9.20001 33.3 9.20001C34.7906 9.20001 36 10.4094 36 11.9V18.2C36 20.1856 34.3856 21.8 32.4 21.8H3.6C1.61438 21.8 0 20.1856 0 18.2Z" fill="#8BF98B"/>
</svg>
