<svg width="36" height="32" viewBox="0 0 36 32" fill="none" xmlns="http://www.w3.org/2000/svg">
<path d="M9.50625 6.25469L7.67109 11.5H28.3289L26.4937 6.25469C26.1773 5.35469 25.3266 4.75 24.3703 4.75H11.6297C10.6734 4.75 9.82266 5.35469 9.50625 6.25469ZM2.78437 11.8375L5.25938 4.77109C6.20859 2.06406 8.76094 0.25 11.6297 0.25H24.3703C27.2391 0.25 29.7914 2.06406 30.7406 4.77109L33.2156 11.8375C34.8469 12.5125 36 14.1227 36 16V29.5C36 30.7445 34.9945 31.75 33.75 31.75H31.5C30.2555 31.75 29.25 30.7445 29.25 29.5V27.25H6.75V29.5C6.75 30.7445 5.74453 31.75 4.5 31.75H2.25C1.00547 31.75 0 30.7445 0 29.5V16C0 14.1227 1.15312 12.5125 2.78437 11.8375ZM9 19.375C9 18.1305 7.99453 17.125 6.75 17.125C5.50547 17.125 4.5 18.1305 4.5 19.375C4.5 20.6195 5.50547 21.625 6.75 21.625C7.99453 21.625 9 20.6195 9 19.375ZM29.25 21.625C30.4945 21.625 31.5 20.6195 31.5 19.375C31.5 18.1305 30.4945 17.125 29.25 17.125C28.0055 17.125 27 18.1305 27 19.375C27 20.6195 28.0055 21.625 29.25 21.625Z" fill="#F98B8B"/>
</svg>
