<svg width="36" height="36" viewBox="0 0 36 36" fill="none" xmlns="http://www.w3.org/2000/svg">
<path d="M20.25 2.25C20.25 3.49453 21.2555 4.5 22.5 4.5H25.3125C26.2477 4.5 27 5.25234 27 6.1875C27 7.12266 26.2477 7.875 25.3125 7.875H2.25C1.00547 7.875 0 8.88047 0 10.125C0 11.3695 1.00547 12.375 2.25 12.375H25.3125C28.7297 12.375 31.5 9.60469 31.5 6.1875C31.5 2.77031 28.7297 0 25.3125 0H22.5C21.2555 0 20.25 1.00547 20.25 2.25ZM24.75 27C24.75 28.2445 25.7555 29.25 27 29.25H29.25C32.9766 29.25 36 26.2266 36 22.5C36 18.7734 32.9766 15.75 29.25 15.75H2.25C1.00547 15.75 0 16.7555 0 18C0 19.2445 1.00547 20.25 2.25 20.25H29.25C30.4945 20.25 31.5 21.2555 31.5 22.5C31.5 23.7445 30.4945 24.75 29.25 24.75H27C25.7555 24.75 24.75 25.7555 24.75 27ZM9 36H11.8125C15.2297 36 18 33.2297 18 29.8125C18 26.3953 15.2297 23.625 11.8125 23.625H2.25C1.00547 23.625 0 24.6305 0 25.875C0 27.1195 1.00547 28.125 2.25 28.125H11.8125C12.7477 28.125 13.5 28.8773 13.5 29.8125C13.5 30.7477 12.7477 31.5 11.8125 31.5H9C7.75547 31.5 6.75 32.5055 6.75 33.75C6.75 34.9945 7.75547 36 9 36Z" fill="#F98B8B"/>
</svg>
