<svg width="32" height="36" viewBox="0 0 32 36" fill="none" xmlns="http://www.w3.org/2000/svg">
<path d="M7 0C3.27344 0 0.25 3.02344 0.25 6.75V27C0.25 29.0953 1.68437 30.8602 3.625 31.3594V33.75C3.625 34.9945 4.63047 36 5.875 36H7C8.24453 36 9.25 34.9945 9.25 33.75V31.5H22.75V33.75C22.75 34.9945 23.7555 36 25 36H26.125C27.3695 36 28.375 34.9945 28.375 33.75V31.3594C30.3156 30.8602 31.75 29.0953 31.75 27V6.75C31.75 3.02344 28.7266 0 25 0H7ZM4.75 12.375C4.75 11.1305 5.75547 10.125 7 10.125H14.3125V18H7C5.75547 18 4.75 16.9945 4.75 15.75V12.375ZM17.6875 18V10.125H25C26.2445 10.125 27.25 11.1305 27.25 12.375V15.75C27.25 16.9945 26.2445 18 25 18H17.6875ZM7 22.5C8.24453 22.5 9.25 23.5055 9.25 24.75C9.25 25.9945 8.24453 27 7 27C5.75547 27 4.75 25.9945 4.75 24.75C4.75 23.5055 5.75547 22.5 7 22.5ZM25 22.5C26.2445 22.5 27.25 23.5055 27.25 24.75C27.25 25.9945 26.2445 27 25 27C23.7555 27 22.75 25.9945 22.75 24.75C22.75 23.5055 23.7555 22.5 25 22.5ZM10.9375 5.0625C10.9375 4.12734 11.6898 3.375 12.625 3.375H19.375C20.3102 3.375 21.0625 4.12734 21.0625 5.0625C21.0625 5.99766 20.3102 6.75 19.375 6.75H12.625C11.6898 6.75 10.9375 5.99766 10.9375 5.0625Z" fill="#F98B8B"/>
</svg>
