<svg width="36" height="32" viewBox="0 0 36 32" fill="none" xmlns="http://www.w3.org/2000/svg">
<path d="M4.5 7.27422C4.5 5.88203 5.63203 4.75 7.02422 4.75C7.69219 4.75 8.33203 5.01719 8.81016 5.48828L9.94922 6.62734C8.47266 9.3625 8.72578 12.7797 10.7156 15.2758L10.6172 15.3672C9.95625 16.0281 9.95625 17.0969 10.6172 17.7508C11.2781 18.4047 12.3469 18.4117 13.0008 17.7508L24.2578 6.50781C24.9187 5.84687 24.9187 4.77812 24.2578 4.12422C23.5969 3.47031 22.5281 3.46328 21.8742 4.12422L21.7828 4.21562C19.2867 2.22578 15.8695 1.97266 13.1344 3.44922L11.9883 2.31016C10.6734 0.988281 8.8875 0.25 7.02422 0.25C3.14297 0.25 0 3.39297 0 7.27422V29.5C0 30.7445 1.00547 31.75 2.25 31.75C3.49453 31.75 4.5 30.7445 4.5 29.5V7.27422ZM18 22.75C19.2445 22.75 20.25 21.7445 20.25 20.5C20.25 19.2555 19.2445 18.25 18 18.25C16.7555 18.25 15.75 19.2555 15.75 20.5C15.75 21.7445 16.7555 22.75 18 22.75ZM22.5 27.25C22.5 26.0055 21.4945 25 20.25 25C19.0055 25 18 26.0055 18 27.25C18 28.4945 19.0055 29.5 20.25 29.5C21.4945 29.5 22.5 28.4945 22.5 27.25ZM22.5 18.25C23.7445 18.25 24.75 17.2445 24.75 16C24.75 14.7555 23.7445 13.75 22.5 13.75C21.2555 13.75 20.25 14.7555 20.25 16C20.25 17.2445 21.2555 18.25 22.5 18.25ZM27 22.75C27 21.5055 25.9945 20.5 24.75 20.5C23.5055 20.5 22.5 21.5055 22.5 22.75C22.5 23.9945 23.5055 25 24.75 25C25.9945 25 27 23.9945 27 22.75ZM27 13.75C28.2445 13.75 29.25 12.7445 29.25 11.5C29.25 10.2555 28.2445 9.25 27 9.25C25.7555 9.25 24.75 10.2555 24.75 11.5C24.75 12.7445 25.7555 13.75 27 13.75ZM31.5 18.25C31.5 17.0055 30.4945 16 29.25 16C28.0055 16 27 17.0055 27 18.25C27 19.4945 28.0055 20.5 29.25 20.5C30.4945 20.5 31.5 19.4945 31.5 18.25ZM33.75 16C34.9945 16 36 14.9945 36 13.75C36 12.5055 34.9945 11.5 33.75 11.5C32.5055 11.5 31.5 12.5055 31.5 13.75C31.5 14.9945 32.5055 16 33.75 16Z" fill="#9D8BF9"/>
</svg>
