<svg width="36" height="30" viewBox="0 0 36 30" fill="none" xmlns="http://www.w3.org/2000/svg">
<path d="M18 0.597168C18.9956 0.597168 19.8 1.40154 19.8 2.39717V14.0972C19.8 14.5922 20.205 14.9972 20.7 14.9972C21.195 14.9972 21.6 14.5922 21.6 14.0972V4.19717C21.6 3.20154 22.4044 2.39717 23.4 2.39717C24.3956 2.39717 25.2 3.20154 25.2 4.19717V14.0972C25.2 14.5922 25.605 14.9972 26.1 14.9972C26.595 14.9972 27 14.5922 27 14.0972V7.79717C27 6.80154 27.8044 5.99717 28.8 5.99717C29.7956 5.99717 30.6 6.80154 30.6 7.79717V17.8209C29.52 18.1247 28.6481 18.9684 28.3275 20.0878L27.9619 21.3647L26.685 21.7303C25.2675 22.1353 24.2944 23.429 24.2944 24.9028C24.2944 26.1459 24.9919 27.2653 26.0606 27.8222C24.5137 28.8234 22.6744 29.4028 20.6944 29.4028H19.6144C16.2619 29.4028 13.0387 28.1147 10.6144 25.8028L4.2975 19.7784C3.3975 18.9234 3.36375 17.4947 4.21875 16.5947C5.07375 15.6947 6.5025 15.6609 7.4025 16.5159L10.8056 19.7559C10.8056 19.6715 10.8 19.5815 10.8 19.4972V4.19717C10.8 3.20154 11.6044 2.39717 12.6 2.39717C13.5956 2.39717 14.4 3.20154 14.4 4.19717V14.0972C14.4 14.5922 14.805 14.9972 15.3 14.9972C15.795 14.9972 16.2 14.5922 16.2 14.0972V2.39717C16.2 1.40154 17.0044 0.597168 18 0.597168ZM17.5894 18.9684C17.5275 18.749 17.325 18.5972 17.1 18.5972C16.875 18.5972 16.6725 18.749 16.6106 18.9684L16.2 20.3972L14.7712 20.8078C14.5519 20.8697 14.4 21.0722 14.4 21.2972C14.4 21.5222 14.5519 21.7247 14.7712 21.7865L16.2 22.1972L16.6106 23.6259C16.6725 23.8453 16.875 23.9972 17.1 23.9972C17.325 23.9972 17.5275 23.8453 17.5894 23.6259L18 22.1972L19.4287 21.7865C19.6481 21.7247 19.8 21.5222 19.8 21.2972C19.8 21.0722 19.6481 20.8697 19.4287 20.8078L18 20.3972L17.5894 18.9684ZM5.85 7.34717L8.56687 8.12342C8.82562 8.19654 9 8.43279 9 8.69717C9 8.96154 8.82562 9.19779 8.56687 9.27092L5.85 10.0472L5.07375 12.764C5.00062 13.0228 4.76437 13.1972 4.5 13.1972C4.23562 13.1972 3.99938 13.0228 3.92625 12.764L3.15 10.0472L0.433125 9.27092C0.174375 9.19779 0 8.96154 0 8.69717C0 8.43279 0.174375 8.19654 0.433125 8.12342L3.15 7.34717L3.92625 4.63029C3.99938 4.37154 4.23562 4.19717 4.5 4.19717C4.76437 4.19717 5.00062 4.37154 5.07375 4.63029L5.85 7.34717ZM32.85 23.5472L35.5669 24.3234C35.8256 24.3965 36 24.6328 36 24.8972C36 25.1615 35.8256 25.3978 35.5669 25.4709L32.85 26.2472L32.0737 28.964C32.0006 29.2228 31.7644 29.3972 31.5 29.3972C31.2356 29.3972 30.9994 29.2228 30.9262 28.964L30.15 26.2472L27.4331 25.4709C27.1744 25.3978 27 25.1615 27 24.8972C27 24.6328 27.1744 24.3965 27.4331 24.3234L30.15 23.5472L30.9262 20.8303C30.9994 20.5715 31.2356 20.3972 31.5 20.3972C31.7644 20.3972 32.0006 20.5715 32.0737 20.8303L32.85 23.5472Z" fill="#F98B8B"/>
</svg>
