<svg width="36" height="28" viewBox="0 0 36 28" fill="none" xmlns="http://www.w3.org/2000/svg">
<path d="M28.8693 4.72488C30.3247 5.82165 32.1034 6.88328 34.0861 7.15044C35.0071 7.27699 35.8578 6.62314 35.9843 5.70213C36.1109 4.78112 35.457 3.93042 34.536 3.80387C33.4181 3.65622 32.2019 3.00941 30.9012 2.03215C28.2014 -0.00672915 24.5385 -0.00672915 21.8317 2.03215C20.1443 3.30469 18.9702 3.8812 18 3.8812C17.0298 3.8812 15.8557 3.30469 14.1683 2.03215C11.4686 -0.00672915 7.8056 -0.00672915 5.09881 2.03215C3.79815 3.00941 2.58185 3.65622 1.46398 3.80387C0.542973 3.93042 -0.110875 4.77409 0.0156765 5.70213C0.142228 6.63017 0.985902 7.27699 1.91394 7.15044C3.89658 6.88328 5.68236 5.82165 7.13066 4.72488C8.62818 3.59295 10.6389 3.59295 12.1365 4.72488C13.8379 6.01148 15.8135 7.24887 18 7.24887C20.1865 7.24887 22.1551 6.00445 23.8635 4.72488C25.3611 3.59295 27.3718 3.59295 28.8693 4.72488ZM28.8693 14.849C30.3247 15.9457 32.1034 17.0074 34.0861 17.2745C35.0071 17.4011 35.8578 16.7472 35.9843 15.8262C36.1109 14.9052 35.457 14.0545 34.536 13.928C33.4181 13.7803 32.2019 13.1335 30.9012 12.1562C28.2014 10.1174 24.5385 10.1174 21.8317 12.1562C20.1443 13.4288 18.9702 14.0053 18 14.0053C17.0298 14.0053 15.8557 13.4288 14.1683 12.1562C11.4686 10.1174 7.8056 10.1174 5.09881 12.1562C3.79815 13.1335 2.58185 13.7803 1.46398 13.928C0.542973 14.0475 -0.110875 14.8982 0.0156765 15.8262C0.142228 16.7543 0.985902 17.4011 1.91394 17.2745C3.89658 17.0074 5.68236 15.9457 7.13066 14.849C8.62818 13.717 10.6389 13.717 12.1365 14.849C13.8379 16.1356 15.8135 17.373 18 17.373C20.1865 17.373 22.1551 16.1285 23.8635 14.849C25.3611 13.717 27.3718 13.717 28.8693 14.849ZM23.8635 24.9731C25.3611 23.8411 27.3718 23.8411 28.8693 24.9731C30.3247 26.0698 32.1034 27.1315 34.0861 27.3986C35.0071 27.5252 35.8578 26.8713 35.9843 25.9503C36.1109 25.0293 35.457 24.1786 34.536 24.052C33.4181 23.9044 32.2019 23.2576 30.9012 22.2803C28.2014 20.2415 24.5385 20.2415 21.8317 22.2803C20.1443 23.5529 18.9702 24.1294 18 24.1294C17.0298 24.1294 15.8557 23.5529 14.1683 22.2803C11.4686 20.2415 7.8056 20.2415 5.09881 22.2803C3.79815 23.2576 2.58185 23.9044 1.46398 24.052C0.542973 24.1786 -0.110875 25.0223 0.0156765 25.9503C0.142228 26.8784 0.985902 27.5252 1.91394 27.3986C3.89658 27.1315 5.68236 26.0698 7.13066 24.9731C8.62818 23.8411 10.6389 23.8411 12.1365 24.9731C13.8379 26.2597 15.8135 27.4971 18 27.4971C20.1865 27.4971 22.1551 26.2526 23.8635 24.9731Z" fill="#9D8BF9"/>
</svg>
