<svg width="28" height="36" viewBox="0 0 28 36" fill="none" xmlns="http://www.w3.org/2000/svg">
<path d="M20.8796 26.1818C21.3774 24.6614 22.3728 23.2841 23.4978 22.0977C25.7274 19.7523 27.091 16.5818 27.091 13.0909C27.091 5.86364 21.2274 0 14.0001 0C6.77282 0 0.90918 5.86364 0.90918 13.0909C0.90918 16.5818 2.27282 19.7523 4.50236 22.0977C5.62736 23.2841 6.62963 24.6614 7.12054 26.1818H20.8728H20.8796ZM20.5455 29.4545H7.45463V30.5455C7.45463 33.5591 9.89554 36 12.9092 36H15.091C18.1046 36 20.5455 33.5591 20.5455 30.5455V29.4545ZM13.4546 7.63636C10.741 7.63636 8.54554 9.83182 8.54554 12.5455C8.54554 13.4523 7.816 14.1818 6.90918 14.1818C6.00236 14.1818 5.27282 13.4523 5.27282 12.5455C5.27282 8.025 8.93418 4.36364 13.4546 4.36364C14.3615 4.36364 15.091 5.09318 15.091 6C15.091 6.90682 14.3615 7.63636 13.4546 7.63636Z" fill="#F9D48B"/>
</svg>
