<svg width="36" height="36" viewBox="0 0 36 36" fill="none" xmlns="http://www.w3.org/2000/svg">
<path d="M16.9329 0.835711L17.8843 3.20143L20.25 4.15285C20.4429 4.23 20.5714 4.42285 20.5714 4.62857C20.5714 4.83428 20.4429 5.02714 20.25 5.10428L17.8843 6.05571L16.9329 8.42142C16.8557 8.61428 16.6629 8.74285 16.4571 8.74285C16.2514 8.74285 16.0586 8.61428 15.9814 8.42142L15.03 6.05571L12.6643 5.10428C12.4714 5.02714 12.3429 4.83428 12.3429 4.62857C12.3429 4.42285 12.4714 4.23 12.6643 4.15285L15.03 3.20143L15.9814 0.835711C16.0586 0.642854 16.2514 0.514282 16.4571 0.514282C16.6629 0.514282 16.8557 0.642854 16.9329 0.835711ZM7.11643 5.25214L8.49857 8.47285L11.7193 9.855C12.0986 10.0157 12.3429 10.3886 12.3429 10.8C12.3429 11.2114 12.0986 11.5843 11.7193 11.745L8.49857 13.1271L7.11643 16.3479C6.95571 16.7271 6.58286 16.9714 6.17143 16.9714C5.76 16.9714 5.38714 16.7271 5.22643 16.3479L3.84429 13.1271L0.623572 11.745C0.244286 11.5843 0 11.2114 0 10.8C0 10.3886 0.244286 10.0157 0.623572 9.855L3.84429 8.47285L5.22643 5.25214C5.38714 4.87285 5.76 4.62857 6.17143 4.62857C6.58286 4.62857 6.95571 4.87285 7.11643 5.25214ZM29.8286 22.1143C30.24 22.1143 30.6129 22.3586 30.7736 22.7379L32.1557 25.9586L35.3764 27.3407C35.7557 27.5014 36 27.8743 36 28.2857C36 28.6971 35.7557 29.07 35.3764 29.2307L32.1557 30.6129L30.7736 33.8336C30.6129 34.2129 30.24 34.4571 29.8286 34.4571C29.4171 34.4571 29.0443 34.2129 28.8836 33.8336L27.5014 30.6129L24.2807 29.2307C23.9014 29.07 23.6571 28.6971 23.6571 28.2857C23.6571 27.8743 23.9014 27.5014 24.2807 27.3407L27.5014 25.9586L28.8836 22.7379C29.0443 22.3586 29.4171 22.1143 29.8286 22.1143ZM29.5714 2.57142C30.2786 2.57142 30.96 2.85428 31.4679 3.35571L34.1871 6.075C34.6886 6.58285 34.9714 7.26428 34.9714 7.97142C34.9714 8.67857 34.6886 9.36 34.1871 9.86785L28.5171 15.5379L22.005 9.02571L27.675 3.35571C28.1829 2.85428 28.8643 2.57142 29.5714 2.57142ZM2.84143 28.1893L19.8257 11.205L26.3379 17.7171L9.35357 34.7014C8.84571 35.2029 8.16429 35.4857 7.45714 35.4857C6.75 35.4857 6.06857 35.2029 5.56071 34.7014L2.84143 31.9821C2.34 31.4743 2.05714 30.7929 2.05714 30.0857C2.05714 29.3786 2.34 28.6971 2.84143 28.1893Z" fill="#9D8BF9"/>
</svg>
