<svg width="36" height="36" viewBox="0 0 36 36" fill="none" xmlns="http://www.w3.org/2000/svg">
<path d="M16.3477 0.365637C17.3953 -0.119519 18.6047 -0.119519 19.6523 0.365637L35.0227 7.4672C35.6203 7.74142 36 8.33908 36 9.00001C36 9.66095 35.6203 10.2586 35.0227 10.5328L19.6523 17.6344C18.6047 18.1195 17.3953 18.1195 16.3477 17.6344L0.977344 10.5328C0.379688 10.2516 0 9.65392 0 9.00001C0 8.34611 0.379688 7.74142 0.977344 7.4672L16.3477 0.365637ZM3.38203 15.3563L14.9344 20.693C16.882 21.593 19.125 21.593 21.0727 20.693L32.625 15.3563L35.0227 16.4672C35.6203 16.7414 36 17.3391 36 18C36 18.661 35.6203 19.2586 35.0227 19.5328L19.6523 26.6344C18.6047 27.1195 17.3953 27.1195 16.3477 26.6344L0.977344 19.5328C0.379688 19.2516 0 18.6539 0 18C0 17.3461 0.379688 16.7414 0.977344 16.4672L3.375 15.3563H3.38203ZM0.977344 25.4672L3.375 24.3563L14.9273 29.693C16.875 30.593 19.118 30.593 21.0656 29.693L32.618 24.3563L35.0156 25.4672C35.6133 25.7414 35.993 26.3391 35.993 27C35.993 27.661 35.6133 28.2586 35.0156 28.5328L19.6453 35.6344C18.5977 36.1195 17.3883 36.1195 16.3406 35.6344L0.977344 28.5328C0.379688 28.2516 0 27.6539 0 27C0 26.3461 0.379688 25.7414 0.977344 25.4672Z" fill="#9D8BF9"/>
</svg>
