<svg width="36" height="26" viewBox="0 0 36 26" fill="none" xmlns="http://www.w3.org/2000/svg">
<path d="M8.26442 4.60057L6.5879 9.39945H13.5021V3.9986H9.11955C8.73699 3.9986 8.39381 4.24052 8.27004 4.60057H8.26442ZM2.72855 9.50634L4.86076 3.41351C5.49648 1.60761 7.20112 0.398041 9.11392 0.398041H20.2475C21.6653 0.398041 22.9986 1.06752 23.8481 2.19832L29.2602 9.41632C33.0239 9.65261 36 12.7806 36 16.6006V17.5007C36 19.4866 34.3854 21.1013 32.3994 21.1013H31.4768C31.2518 23.6273 29.1308 25.602 26.5485 25.602C23.9662 25.602 21.8453 23.6273 21.6203 21.1013H13.4796C13.2546 23.6273 11.1336 25.602 8.55134 25.602C5.96906 25.602 3.8481 23.6273 3.62307 21.1013H3.60056C1.61463 21.1013 0 19.4866 0 17.5007V13C0 11.3066 1.16456 9.8889 2.73418 9.50634H2.72855ZM24.7482 9.39945L20.9676 4.35866C20.7989 4.13362 20.5288 3.9986 20.2475 3.9986H16.1969V9.39945H24.7482ZM8.54571 22.9016C9.78903 22.9016 10.7961 21.8945 10.7961 20.6512C10.7961 19.4079 9.78903 18.4009 8.54571 18.4009C7.30239 18.4009 6.29536 19.4079 6.29536 20.6512C6.29536 21.8945 7.30239 22.9016 8.54571 22.9016ZM28.7989 20.6512C28.7989 19.4079 27.7918 18.4009 26.5485 18.4009C25.3052 18.4009 24.2982 19.4079 24.2982 20.6512C24.2982 21.8945 25.3052 22.9016 26.5485 22.9016C27.7918 22.9016 28.7989 21.8945 28.7989 20.6512Z" fill="#F98B8B"/>
</svg>
