<svg width="28" height="36" viewBox="0 0 28 36" fill="none" xmlns="http://www.w3.org/2000/svg">
<path d="M14.0001 36C6.77282 36 0.90918 30.1364 0.90918 22.9091C0.90918 16.6909 9.78645 4.22045 12.2683 0.852273C12.6705 0.306818 13.3046 0 13.9865 0H14.0137C14.6955 0 15.3296 0.306818 15.7319 0.852273C18.2137 4.22045 27.091 16.6909 27.091 22.9091C27.091 30.1364 21.2274 36 14.0001 36ZM8.54554 22.3636C8.54554 21.4568 7.816 20.7273 6.90918 20.7273C6.00236 20.7273 5.27282 21.4568 5.27282 22.3636C5.27282 27.4841 9.42509 31.6364 14.5455 31.6364C15.4524 31.6364 16.1819 30.9068 16.1819 30C16.1819 29.0932 15.4524 28.3636 14.5455 28.3636C11.2319 28.3636 8.54554 25.6773 8.54554 22.3636Z" fill="#F98B8B"/>
</svg>
