<svg width="32" height="36" viewBox="0 0 32 36" fill="none" xmlns="http://www.w3.org/2000/svg">
<path d="M10.9375 18V5.21719C9.21484 6.65859 8.125 8.83125 8.125 11.25V18H10.9375ZM14.3125 18H17.6875V3.55781C17.1461 3.43828 16.5766 3.375 16 3.375C15.4234 3.375 14.8539 3.43828 14.3125 3.55781V18ZM21.0625 5.21719V18H23.875V11.25C23.875 8.83125 22.7852 6.66562 21.0625 5.21719ZM2.5 18H4.75V11.25C4.75 5.03437 9.78437 0 16 0C22.2156 0 27.25 5.03437 27.25 11.25V18H29.5C30.7445 18 31.75 19.0055 31.75 20.25V24.75C31.75 25.9945 30.7445 27 29.5 27V33.75C29.5 34.9945 28.4945 36 27.25 36C26.0055 36 25 34.9945 25 33.75V27H7V33.75C7 34.9945 5.99453 36 4.75 36C3.50547 36 2.5 34.9945 2.5 33.75V27C1.25547 27 0.25 25.9945 0.25 24.75V20.25C0.25 19.0055 1.25547 18 2.5 18Z" fill="#8BF98B"/>
</svg>
