<svg width="59" height="60" viewBox="0 0 59 60" fill="none" xmlns="http://www.w3.org/2000/svg">
<path d="M13.469 6.5625C13.469 2.94141 16.4104 0 20.0315 0H22.844C24.9182 0 26.594 1.67578 26.594 3.75V56.25C26.594 58.3242 24.9182 60 22.844 60H19.094C15.6018 60 12.6604 57.6094 11.8284 54.375C11.7463 54.375 11.676 54.375 11.594 54.375C6.41431 54.375 2.21899 50.1797 2.21899 45C2.21899 42.8906 2.92212 40.9453 4.09399 39.375C1.82056 37.6641 0.343994 34.9453 0.343994 31.875C0.343994 28.2539 2.40649 25.1016 5.40649 23.543C4.57446 22.1367 4.09399 20.4961 4.09399 18.75C4.09399 13.5703 8.28931 9.375 13.469 9.375V6.5625ZM45.344 6.5625V9.375C50.5237 9.375 54.719 13.5703 54.719 18.75C54.719 20.5078 54.2385 22.1484 53.4065 23.543C56.4182 25.1016 58.469 28.2422 58.469 31.875C58.469 34.9453 56.9924 37.6641 54.719 39.375C55.8909 40.9453 56.594 42.8906 56.594 45C56.594 50.1797 52.3987 54.375 47.219 54.375C47.137 54.375 47.0667 54.375 46.9846 54.375C46.1526 57.6094 43.2112 60 39.719 60H35.969C33.8948 60 32.219 58.3242 32.219 56.25V3.75C32.219 1.67578 33.8948 0 35.969 0H38.7815C42.4026 0 45.344 2.94141 45.344 6.5625Z" fill="#F9D88B"/>
</svg>
