<svg xmlns="http://www.w3.org/2000/svg" width="60" height="54" viewBox="0 0 60 54" fill="none">
  <path d="M9.29401 13.059C9.29401 6.05683 14.9655 0.385376 21.9676 0.385376C28.9698 0.385376 34.6413 6.05683 34.6413 13.059C34.6413 20.0612 28.9698 25.7327 21.9676 25.7327C14.9655 25.7327 9.29401 20.0612 9.29401 13.059ZM0 50.478C0 40.075 8.42797 31.647 18.8309 31.647H25.1044C35.5073 31.647 43.9353 40.075 43.9353 50.478C43.9353 52.21 42.5306 53.6147 40.7986 53.6147H3.13673C1.40466 53.6147 0 52.21 0 50.478ZM59.6084 13.5554L51.1593 27.074C50.7157 27.7816 49.9553 28.2251 49.1209 28.2674C48.2866 28.3096 47.4839 27.9294 46.9875 27.2535L41.9181 20.4942C41.0732 19.3747 41.3055 17.7905 42.425 16.9456C43.5445 16.1007 45.1287 16.333 45.9736 17.4526L48.8252 21.2546L55.3099 10.8728C56.0492 9.68994 57.6123 9.3203 58.8057 10.0702C59.9991 10.82 60.3582 12.3725 59.6084 13.566V13.5554Z" fill="#F9D88B"/>
</svg>