<svg width="36" height="60" viewBox="0 0 36 60" fill="none" xmlns="http://www.w3.org/2000/svg">
<path d="M11.0572 3.52941V12.3529H25.1749V9.70588H33.1161C34.583 9.70588 35.7631 8.52574 35.7631 7.05882C35.7631 5.59191 34.583 4.41176 33.1161 4.41176H25.1749V3.52941C25.1749 1.57721 23.5977 0 21.6455 0H14.5866C12.6344 0 11.0572 1.57721 11.0572 3.52941ZM7.52782 17.6471C3.63444 17.6471 0.468994 20.8125 0.468994 24.7059V52.9412C0.468994 56.8346 3.63444 60 7.52782 60H28.7043C32.5977 60 35.7631 56.8346 35.7631 52.9412V24.7059C35.7631 20.8125 32.5977 17.6471 28.7043 17.6471H7.52782ZM25.1749 41.4706C25.1749 45.364 22.0094 47.6471 18.1161 47.6471C14.2227 47.6471 11.0572 45.364 11.0572 41.4706C11.0572 37.886 15.1381 32.5478 16.6712 30.6728C17.0241 30.2426 17.5646 30 18.1161 30C18.6675 30 19.208 30.2426 19.5609 30.6728C21.094 32.5478 25.1749 37.886 25.1749 41.4706Z" fill="#F9D88B"/>
</svg>
